REM DIRINDEX 1\2,1\3,1\4,1\5,1\6
REM DIRNAME folder01,folder02,folder03,folder04,folder05,folder06
TITLE ""
FILE "DISC4Track14.mp3" MP3
  TRACK 01 AUDIO
    TITLE "0:"
    INDEX 01 00:00:00
  TRACK 02 AUDIO
    TITLE "3:cjc129_3271"
    INDEX 01 00:00:05
  TRACK 03 AUDIO
    TITLE "0:"
    INDEX 01 00:02:59
  TRACK 04 AUDIO
    TITLE "5:cjc129_3272"
    INDEX 01 00:03:12
  TRACK 05 AUDIO
    TITLE "0:"
    INDEX 01 00:06:41
  TRACK 06 AUDIO
    TITLE "4:cjc129_3273"
    INDEX 01 00:07:29
  TRACK 07 AUDIO
    TITLE "0:"
    INDEX 01 00:10:06
  TRACK 08 AUDIO
    TITLE "6:cjc129_3274"
    INDEX 01 00:10:37
  TRACK 09 AUDIO
    TITLE "0:"
    INDEX 01 00:13:41
  TRACK 10 AUDIO
    TITLE "3:cjc129_3275"
    INDEX 01 00:15:17
  TRACK 11 AUDIO
    TITLE "0:"
    INDEX 01 00:16:28
  TRACK 12 AUDIO
    TITLE "5:cjc129_3276"
    INDEX 01 00:16:59
  TRACK 13 AUDIO
    TITLE "0:"
    INDEX 01 00:21:04
  TRACK 14 AUDIO
    TITLE "4:cjc129_3277"
    INDEX 01 00:21:68
  TRACK 15 AUDIO
    TITLE "0:"
    INDEX 01 00:23:04
  TRACK 16 AUDIO
    TITLE "6:cjc129_3278"
    INDEX 01 00:23:38
  TRACK 17 AUDIO
    TITLE "0:"
    INDEX 01 00:28:68
  TRACK 18 AUDIO
    TITLE "2:cjc129_3279"
    INDEX 01 00:30:44
  TRACK 19 AUDIO
    TITLE "0:"
    INDEX 01 00:34:20
  TRACK 20 AUDIO
    TITLE "3:cjc129_3280"
    INDEX 01 00:35:31
  TRACK 21 AUDIO
    TITLE "0:"
    INDEX 01 00:37:40
  TRACK 22 AUDIO
    TITLE "5:cjc129_3281"
    INDEX 01 00:37:69
  TRACK 23 AUDIO
    TITLE "0:"
    INDEX 01 00:41:16
  TRACK 24 AUDIO
    TITLE "4:cjc129_3282"
    INDEX 01 00:42:04
  TRACK 25 AUDIO
    TITLE "0:"
    INDEX 01 00:44:12
  TRACK 26 AUDIO
    TITLE "6:cjc129_3283"
    INDEX 01 00:44:42
  TRACK 27 AUDIO
    TITLE "0:"
    INDEX 01 00:49:23
  TRACK 28 AUDIO
    TITLE "3:cjc129_3284"
    INDEX 01 00:51:01
  TRACK 29 AUDIO
    TITLE "0:"
    INDEX 01 00:56:14
  TRACK 30 AUDIO
    TITLE "5:cjc129_3285"
    INDEX 01 00:56:47
  TRACK 31 AUDIO
    TITLE "0:"
    INDEX 01 01:02:38
  TRACK 32 AUDIO
    TITLE "4:cjc129_3286"
    INDEX 01 01:03:29
  TRACK 33 AUDIO
    TITLE "0:"
    INDEX 01 01:08:46
  TRACK 34 AUDIO
    TITLE "6:cjc129_3287"
    INDEX 01 01:09:03
  TRACK 35 AUDIO
    TITLE "0:"
    INDEX 01 01:13:71
  TRACK 36 AUDIO
    TITLE "3:cjc129_3288"
    INDEX 01 01:15:44
  TRACK 37 AUDIO
    TITLE "0:"
    INDEX 01 01:17:12
  TRACK 38 AUDIO
    TITLE "5:cjc129_3289"
    INDEX 01 01:17:41
  TRACK 39 AUDIO
    TITLE "0:"
    INDEX 01 01:19:05
  TRACK 40 AUDIO
    TITLE "4:cjc129_3290"
    INDEX 01 01:19:70
  TRACK 41 AUDIO
    TITLE "0:"
    INDEX 01 01:21:37
  TRACK 42 AUDIO
    TITLE "6:cjc129_3291"
    INDEX 01 01:21:67
  TRACK 43 AUDIO
    TITLE "0:"
    INDEX 01 01:25:51
  TRACK 44 AUDIO
    TITLE "3:cjc129_3292"
    INDEX 01 01:27:28
  TRACK 45 AUDIO
    TITLE "0:"
    INDEX 01 01:28:49
  TRACK 46 AUDIO
    TITLE "5:cjc129_3293"
    INDEX 01 01:29:05
  TRACK 47 AUDIO
    TITLE "0:"
    INDEX 01 01:31:30
  TRACK 48 AUDIO
    TITLE "4:cjc129_3294"
    INDEX 01 01:32:21
  TRACK 49 AUDIO
    TITLE "0:"
    INDEX 01 01:33:42
  TRACK 50 AUDIO
    TITLE "6:cjc129_3295"
    INDEX 01 01:33:74
  TRACK 51 AUDIO
    TITLE "0:"
    INDEX 01 01:38:53
  TRACK 52 AUDIO
    TITLE "3:cjc129_3296"
    INDEX 01 01:40:27
  TRACK 53 AUDIO
    TITLE "0:"
    INDEX 01 01:41:48
  TRACK 54 AUDIO
    TITLE "5:cjc129_3297"
    INDEX 01 01:42:04
  TRACK 55 AUDIO
    TITLE "0:"
    INDEX 01 01:43:52
  TRACK 56 AUDIO
    TITLE "4:cjc129_3298"
    INDEX 01 01:44:42
  TRACK 57 AUDIO
    TITLE "0:"
    INDEX 01 01:45:65
  TRACK 58 AUDIO
    TITLE "6:cjc129_3299"
    INDEX 01 01:46:19
  TRACK 59 AUDIO
    TITLE "0:"
    INDEX 01 01:50:62
